<?xml version="1.0" standalone="no"?>
<!DOCTYPE svg PUBLIC "-//W3C//DTD SVG 20010904//EN"
 "http://www.w3.org/TR/2001/REC-SVG-20010904/DTD/svg10.dtd">
<svg version="1.0" xmlns="http://www.w3.org/2000/svg"
 width="600.000000pt" height="600.000000pt" viewBox="0 0 600.000000 600.000000"
 preserveAspectRatio="xMidYMid meet">

<g transform="translate(0.000000,600.000000) scale(0.100000,-0.100000)"
fill="#5285c5" stroke="none">
<path d="M2913 5770 c-78 -16 -141 -51 -190 -104 -83 -89 -173 -193 -204 -236
-17 -23 -89 -114 -162 -202 -73 -89 -166 -203 -207 -253 -41 -51 -152 -186
-247 -301 -94 -115 -228 -279 -298 -364 -69 -85 -140 -171 -156 -190 -17 -19
-59 -71 -94 -115 -36 -44 -97 -121 -137 -171 -40 -50 -121 -149 -179 -220
-141 -171 -184 -237 -222 -336 l-32 -83 -3 -1190 c-3 -1345 -7 -1265 76 -1428
94 -184 254 -308 452 -349 53 -10 368 -13 1695 -13 1833 0 1688 -6 1846 76
181 94 293 244 350 468 18 73 19 126 19 1200 0 1169 0 1178 -43 1306 -44 133
-44 132 -327 479 -107 131 -239 293 -293 360 -127 157 -473 581 -657 806 -80
97 -254 310 -388 474 -135 165 -260 308 -281 322 -88 58 -221 85 -318 64z
m155 -248 c31 -17 201 -214 320 -371 31 -41 74 -96 97 -121 22 -26 115 -139
206 -251 92 -112 233 -285 315 -384 81 -99 260 -317 397 -485 137 -168 256
-314 265 -325 33 -39 158 -193 199 -246 60 -76 92 -149 104 -238 6 -49 9 -475
7 -1186 -3 -1141 -3 -1133 -40 -1200 -7 -11 -17 -31 -24 -44 -48 -90 -162
-178 -271 -206 -75 -20 -792 -22 -811 -3 -9 9 -12 208 -12 832 0 907 2 880
-65 1021 -89 186 -223 300 -435 366 -70 23 -91 24 -320 24 -264 0 -284 -3
-425 -62 -218 -91 -366 -297 -396 -548 -5 -44 -9 -427 -9 -850 0 -586 -3 -774
-12 -783 -9 -9 -108 -12 -383 -12 -412 0 -456 6 -548 69 -105 72 -188 199
-207 317 -14 86 -13 2203 1 2279 24 131 24 131 534 749 168 204 260 317 371
458 25 32 59 72 75 89 16 18 38 44 48 58 17 24 212 262 674 824 97 119 190
223 205 231 36 20 100 19 140 -2z m132 -3063 c188 -29 345 -182 380 -368 6
-34 10 -345 10 -832 0 -694 -2 -779 -16 -793 -14 -14 -80 -16 -578 -16 -424 0
-565 3 -574 12 -9 9 -12 202 -12 808 0 862 -1 850 55 960 61 121 186 208 330
230 76 11 332 11 405 -1z"/>
</g>
</svg>
